<mxfile host="Electron" modified="2024-04-01T13:33:37.332Z" agent="Mozilla/5.0 (Windows NT 10.0; Win64; x64) AppleWebKit/537.36 (KHTML, like Gecko) draw.io/24.1.0 Chrome/120.0.6099.109 Electron/28.1.0 Safari/537.36" etag="Rbknw_C714yNf0lRorcj" version="24.1.0" type="device">
  <diagram name="Страница — 1" id="LnBMqvpUAPWQxKaWpJKB">
    <mxGraphModel dx="2066" dy="2190" grid="1" gridSize="10" guides="1" tooltips="1" connect="1" arrows="1" fold="1" page="1" pageScale="1" pageWidth="827" pageHeight="1169" math="0" shadow="0">
      <root>
        <mxCell id="0" />
        <mxCell id="1" parent="0" />
        <mxCell id="HcpTpRQro9Q7iZag2Mpt-1" value="Рис.1. Контекстная диаграмма А-0 Управлять электронными заказами" style="text;whiteSpace=wrap;" vertex="1" parent="1">
          <mxGeometry x="220" y="260" width="430" height="40" as="geometry" />
        </mxCell>
        <mxCell id="HcpTpRQro9Q7iZag2Mpt-2" value="Рис.2. Диаграмма декомпозиции А-0 Управлять электронными заказами" style="text;whiteSpace=wrap;" vertex="1" parent="1">
          <mxGeometry x="259" y="913.5" width="440" height="40" as="geometry" />
        </mxCell>
        <mxCell id="HcpTpRQro9Q7iZag2Mpt-3" value="Управлять&amp;nbsp;&lt;div&gt;электронными заказами&lt;/div&gt;" style="rounded=0;whiteSpace=wrap;html=1;" vertex="1" parent="1">
          <mxGeometry x="311" y="80" width="206" height="100" as="geometry" />
        </mxCell>
        <mxCell id="HcpTpRQro9Q7iZag2Mpt-4" value="" style="endArrow=classic;html=1;rounded=0;" edge="1" parent="1">
          <mxGeometry width="50" height="50" relative="1" as="geometry">
            <mxPoint x="329.71" as="sourcePoint" />
            <mxPoint x="329.71" y="80" as="targetPoint" />
          </mxGeometry>
        </mxCell>
        <mxCell id="HcpTpRQro9Q7iZag2Mpt-5" value="" style="endArrow=classic;html=1;rounded=0;" edge="1" parent="1">
          <mxGeometry width="50" height="50" relative="1" as="geometry">
            <mxPoint x="390.24" as="sourcePoint" />
            <mxPoint x="390" y="80" as="targetPoint" />
          </mxGeometry>
        </mxCell>
        <mxCell id="HcpTpRQro9Q7iZag2Mpt-6" value="" style="endArrow=classic;html=1;rounded=0;" edge="1" parent="1">
          <mxGeometry width="50" height="50" relative="1" as="geometry">
            <mxPoint x="509" as="sourcePoint" />
            <mxPoint x="509" y="80" as="targetPoint" />
          </mxGeometry>
        </mxCell>
        <mxCell id="HcpTpRQro9Q7iZag2Mpt-7" value="" style="endArrow=classic;html=1;rounded=0;" edge="1" parent="1">
          <mxGeometry width="50" height="50" relative="1" as="geometry">
            <mxPoint x="210" y="130" as="sourcePoint" />
            <mxPoint x="310" y="130" as="targetPoint" />
          </mxGeometry>
        </mxCell>
        <mxCell id="HcpTpRQro9Q7iZag2Mpt-8" value="" style="endArrow=classic;html=1;rounded=0;" edge="1" parent="1">
          <mxGeometry width="50" height="50" relative="1" as="geometry">
            <mxPoint x="517" y="129.66" as="sourcePoint" />
            <mxPoint x="660" y="130" as="targetPoint" />
          </mxGeometry>
        </mxCell>
        <mxCell id="HcpTpRQro9Q7iZag2Mpt-10" value="" style="endArrow=classic;html=1;rounded=0;" edge="1" parent="1">
          <mxGeometry width="50" height="50" relative="1" as="geometry">
            <mxPoint x="370" y="230" as="sourcePoint" />
            <mxPoint x="370" y="180" as="targetPoint" />
          </mxGeometry>
        </mxCell>
        <mxCell id="HcpTpRQro9Q7iZag2Mpt-13" value="" style="endArrow=classic;html=1;rounded=0;" edge="1" parent="1">
          <mxGeometry width="50" height="50" relative="1" as="geometry">
            <mxPoint x="450" y="230" as="sourcePoint" />
            <mxPoint x="450" y="180" as="targetPoint" />
          </mxGeometry>
        </mxCell>
        <mxCell id="HcpTpRQro9Q7iZag2Mpt-15" value="Сведения о&lt;div&gt;товарах&lt;/div&gt;" style="text;html=1;align=left;verticalAlign=middle;whiteSpace=wrap;rounded=0;" vertex="1" parent="1">
          <mxGeometry x="259.71" width="70" height="30" as="geometry" />
        </mxCell>
        <mxCell id="HcpTpRQro9Q7iZag2Mpt-16" value="Сведения о&lt;div&gt;службах&lt;/div&gt;&lt;div&gt;доставки&lt;/div&gt;" style="text;html=1;align=left;verticalAlign=middle;whiteSpace=wrap;rounded=0;" vertex="1" parent="1">
          <mxGeometry x="359" y="-40" width="70" height="30" as="geometry" />
        </mxCell>
        <mxCell id="HcpTpRQro9Q7iZag2Mpt-17" value="Сведения о&lt;div&gt;платёжных системах&lt;/div&gt;" style="text;html=1;align=left;verticalAlign=middle;whiteSpace=wrap;rounded=0;" vertex="1" parent="1">
          <mxGeometry x="517" y="10" width="70" height="30" as="geometry" />
        </mxCell>
        <mxCell id="HcpTpRQro9Q7iZag2Mpt-18" value="Данные пользователя" style="text;html=1;align=left;verticalAlign=middle;whiteSpace=wrap;rounded=0;" vertex="1" parent="1">
          <mxGeometry x="210" y="95" width="70" height="30" as="geometry" />
        </mxCell>
        <mxCell id="HcpTpRQro9Q7iZag2Mpt-19" value="&lt;font style=&quot;font-size: 10px;&quot;&gt;0р&lt;/font&gt;" style="text;html=1;align=left;verticalAlign=middle;whiteSpace=wrap;rounded=0;fontSize=10;" vertex="1" parent="1">
          <mxGeometry x="311" y="164" width="8" height="16" as="geometry" />
        </mxCell>
        <mxCell id="HcpTpRQro9Q7iZag2Mpt-20" value="&lt;font style=&quot;font-size: 10px;&quot;&gt;0&lt;/font&gt;" style="text;html=1;align=left;verticalAlign=middle;whiteSpace=wrap;rounded=0;fontSize=10;" vertex="1" parent="1">
          <mxGeometry x="509" y="164" width="8" height="16" as="geometry" />
        </mxCell>
        <mxCell id="HcpTpRQro9Q7iZag2Mpt-22" value="Отчёты о продажах" style="text;html=1;align=left;verticalAlign=middle;whiteSpace=wrap;rounded=0;" vertex="1" parent="1">
          <mxGeometry x="530" y="90" width="70" height="30" as="geometry" />
        </mxCell>
        <mxCell id="HcpTpRQro9Q7iZag2Mpt-23" value="Покупатель" style="text;html=1;align=left;verticalAlign=middle;whiteSpace=wrap;rounded=0;" vertex="1" parent="1">
          <mxGeometry x="300" y="190" width="70" height="30" as="geometry" />
        </mxCell>
        <mxCell id="HcpTpRQro9Q7iZag2Mpt-24" value="Компания&lt;div&gt;&quot;БукЧейн&quot;&lt;/div&gt;" style="text;html=1;align=left;verticalAlign=middle;whiteSpace=wrap;rounded=0;" vertex="1" parent="1">
          <mxGeometry x="460" y="190" width="70" height="30" as="geometry" />
        </mxCell>
        <mxCell id="HcpTpRQro9Q7iZag2Mpt-25" value="Посмотреть&lt;div&gt;каталог и&amp;nbsp;&lt;/div&gt;&lt;div&gt;создать корзину&lt;/div&gt;" style="rounded=0;whiteSpace=wrap;html=1;" vertex="1" parent="1">
          <mxGeometry x="39" y="470.5" width="150" height="70" as="geometry" />
        </mxCell>
        <mxCell id="HcpTpRQro9Q7iZag2Mpt-27" value="" style="endArrow=classic;html=1;rounded=0;" edge="1" parent="1">
          <mxGeometry width="50" height="50" relative="1" as="geometry">
            <mxPoint x="113.9" y="390.5" as="sourcePoint" />
            <mxPoint x="113.66" y="470.5" as="targetPoint" />
          </mxGeometry>
        </mxCell>
        <mxCell id="HcpTpRQro9Q7iZag2Mpt-29" value="" style="endArrow=classic;html=1;rounded=0;" edge="1" parent="1">
          <mxGeometry width="50" height="50" relative="1" as="geometry">
            <mxPoint x="-251" y="435.5" as="sourcePoint" />
            <mxPoint x="-151" y="435.5" as="targetPoint" />
          </mxGeometry>
        </mxCell>
        <mxCell id="HcpTpRQro9Q7iZag2Mpt-36" value="Данные пользователя" style="text;html=1;align=left;verticalAlign=middle;whiteSpace=wrap;rounded=0;" vertex="1" parent="1">
          <mxGeometry x="-251" y="400.5" width="70" height="30" as="geometry" />
        </mxCell>
        <mxCell id="HcpTpRQro9Q7iZag2Mpt-37" value="&lt;font style=&quot;font-size: 10px;&quot;&gt;0р&lt;/font&gt;" style="text;html=1;align=left;verticalAlign=middle;whiteSpace=wrap;rounded=0;" vertex="1" parent="1">
          <mxGeometry x="39" y="524.5" width="8" height="16" as="geometry" />
        </mxCell>
        <mxCell id="HcpTpRQro9Q7iZag2Mpt-38" value="&lt;font style=&quot;font-size: 10px;&quot;&gt;2&lt;/font&gt;" style="text;html=1;align=left;verticalAlign=middle;whiteSpace=wrap;rounded=0;" vertex="1" parent="1">
          <mxGeometry x="181" y="524.5" width="8" height="16" as="geometry" />
        </mxCell>
        <mxCell id="HcpTpRQro9Q7iZag2Mpt-39" value="Отчёты о продажах" style="text;html=1;align=left;verticalAlign=middle;whiteSpace=wrap;rounded=0;" vertex="1" parent="1">
          <mxGeometry x="969" y="710.5" width="70" height="30" as="geometry" />
        </mxCell>
        <mxCell id="HcpTpRQro9Q7iZag2Mpt-40" value="Покупатель" style="text;html=1;align=left;verticalAlign=middle;whiteSpace=wrap;rounded=0;" vertex="1" parent="1">
          <mxGeometry x="-161" y="750.5" width="71" height="30" as="geometry" />
        </mxCell>
        <mxCell id="HcpTpRQro9Q7iZag2Mpt-46" value="Сведения о&lt;div&gt;товарах&lt;/div&gt;" style="text;html=1;align=left;verticalAlign=middle;whiteSpace=wrap;rounded=0;" vertex="1" parent="1">
          <mxGeometry x="119" y="390.5" width="70" height="30" as="geometry" />
        </mxCell>
        <mxCell id="HcpTpRQro9Q7iZag2Mpt-49" value="" style="endArrow=classic;html=1;rounded=0;" edge="1" parent="1">
          <mxGeometry width="50" height="50" relative="1" as="geometry">
            <mxPoint x="-86" y="873.5" as="sourcePoint" />
            <mxPoint x="-86.34" y="470.5" as="targetPoint" />
          </mxGeometry>
        </mxCell>
        <mxCell id="HcpTpRQro9Q7iZag2Mpt-50" value="Создать заказ" style="rounded=0;whiteSpace=wrap;html=1;" vertex="1" parent="1">
          <mxGeometry x="230" y="536.5" width="150" height="70" as="geometry" />
        </mxCell>
        <mxCell id="HcpTpRQro9Q7iZag2Mpt-51" value="&lt;font style=&quot;font-size: 10px;&quot;&gt;0р&lt;/font&gt;" style="text;html=1;align=left;verticalAlign=middle;whiteSpace=wrap;rounded=0;fontSize=10;" vertex="1" parent="1">
          <mxGeometry x="230" y="590.5" width="8" height="16" as="geometry" />
        </mxCell>
        <mxCell id="HcpTpRQro9Q7iZag2Mpt-52" value="&lt;font style=&quot;font-size: 10px;&quot;&gt;3&lt;/font&gt;" style="text;html=1;align=left;verticalAlign=middle;whiteSpace=wrap;rounded=0;fontSize=10;" vertex="1" parent="1">
          <mxGeometry x="370" y="590.5" width="8" height="16" as="geometry" />
        </mxCell>
        <mxCell id="HcpTpRQro9Q7iZag2Mpt-53" style="edgeStyle=orthogonalEdgeStyle;rounded=1;orthogonalLoop=1;jettySize=auto;html=1;exitX=1;exitY=0.5;exitDx=0;exitDy=0;entryX=0;entryY=0.5;entryDx=0;entryDy=0;curved=0;" edge="1" parent="1" target="HcpTpRQro9Q7iZag2Mpt-50">
          <mxGeometry relative="1" as="geometry">
            <mxPoint x="189" y="510.5" as="sourcePoint" />
            <mxPoint x="209" y="590.5" as="targetPoint" />
          </mxGeometry>
        </mxCell>
        <mxCell id="HcpTpRQro9Q7iZag2Mpt-56" value="Корзина" style="text;html=1;align=left;verticalAlign=middle;whiteSpace=wrap;rounded=0;" vertex="1" parent="1">
          <mxGeometry x="195" y="490.5" width="51" height="20" as="geometry" />
        </mxCell>
        <mxCell id="HcpTpRQro9Q7iZag2Mpt-67" value="Отправка, проверка и&lt;div&gt;утверждение заказа&lt;/div&gt;" style="rounded=0;whiteSpace=wrap;html=1;" vertex="1" parent="1">
          <mxGeometry x="421" y="595.5" width="150" height="70" as="geometry" />
        </mxCell>
        <mxCell id="HcpTpRQro9Q7iZag2Mpt-68" value="&lt;font style=&quot;font-size: 10px;&quot;&gt;0р&lt;/font&gt;" style="text;html=1;align=left;verticalAlign=middle;whiteSpace=wrap;rounded=0;fontSize=10;" vertex="1" parent="1">
          <mxGeometry x="421" y="649.5" width="8" height="16" as="geometry" />
        </mxCell>
        <mxCell id="HcpTpRQro9Q7iZag2Mpt-69" value="&lt;font style=&quot;font-size: 10px;&quot;&gt;4&lt;/font&gt;" style="text;html=1;align=left;verticalAlign=middle;whiteSpace=wrap;rounded=0;fontSize=10;" vertex="1" parent="1">
          <mxGeometry x="561" y="649.5" width="8" height="16" as="geometry" />
        </mxCell>
        <mxCell id="HcpTpRQro9Q7iZag2Mpt-70" style="edgeStyle=orthogonalEdgeStyle;rounded=1;orthogonalLoop=1;jettySize=auto;html=1;exitX=1;exitY=0.5;exitDx=0;exitDy=0;entryX=0;entryY=0.5;entryDx=0;entryDy=0;curved=0;" edge="1" parent="1" target="HcpTpRQro9Q7iZag2Mpt-67">
          <mxGeometry relative="1" as="geometry">
            <mxPoint x="380" y="569.5" as="sourcePoint" />
            <mxPoint x="400" y="649.5" as="targetPoint" />
          </mxGeometry>
        </mxCell>
        <mxCell id="HcpTpRQro9Q7iZag2Mpt-71" value="Оплатить&amp;nbsp;&lt;div&gt;заказ&lt;/div&gt;" style="rounded=0;whiteSpace=wrap;html=1;" vertex="1" parent="1">
          <mxGeometry x="612" y="656.5" width="150" height="70" as="geometry" />
        </mxCell>
        <mxCell id="HcpTpRQro9Q7iZag2Mpt-72" value="&lt;font style=&quot;font-size: 10px;&quot;&gt;0р&lt;/font&gt;" style="text;html=1;align=left;verticalAlign=middle;whiteSpace=wrap;rounded=0;fontSize=10;" vertex="1" parent="1">
          <mxGeometry x="612" y="710.5" width="8" height="16" as="geometry" />
        </mxCell>
        <mxCell id="HcpTpRQro9Q7iZag2Mpt-73" value="&lt;font style=&quot;font-size: 10px;&quot;&gt;5&lt;/font&gt;" style="text;html=1;align=left;verticalAlign=middle;whiteSpace=wrap;rounded=0;fontSize=10;" vertex="1" parent="1">
          <mxGeometry x="753" y="710.5" width="8" height="16" as="geometry" />
        </mxCell>
        <mxCell id="HcpTpRQro9Q7iZag2Mpt-74" style="edgeStyle=orthogonalEdgeStyle;rounded=1;orthogonalLoop=1;jettySize=auto;html=1;exitX=1;exitY=0.5;exitDx=0;exitDy=0;entryX=0;entryY=0.5;entryDx=0;entryDy=0;curved=0;" edge="1" parent="1" target="HcpTpRQro9Q7iZag2Mpt-71">
          <mxGeometry relative="1" as="geometry">
            <mxPoint x="571" y="630.5" as="sourcePoint" />
            <mxPoint x="591" y="710.5" as="targetPoint" />
          </mxGeometry>
        </mxCell>
        <mxCell id="HcpTpRQro9Q7iZag2Mpt-88" value="" style="edgeStyle=orthogonalEdgeStyle;rounded=0;orthogonalLoop=1;jettySize=auto;html=1;" edge="1" parent="1" source="HcpTpRQro9Q7iZag2Mpt-83">
          <mxGeometry relative="1" as="geometry">
            <mxPoint x="1033" y="751.5" as="targetPoint" />
          </mxGeometry>
        </mxCell>
        <mxCell id="HcpTpRQro9Q7iZag2Mpt-83" value="Собрать&amp;nbsp;&lt;div&gt;и отправить заказ&lt;/div&gt;" style="rounded=0;whiteSpace=wrap;html=1;" vertex="1" parent="1">
          <mxGeometry x="803" y="716.5" width="150" height="70" as="geometry" />
        </mxCell>
        <mxCell id="HcpTpRQro9Q7iZag2Mpt-84" value="&lt;font style=&quot;font-size: 10px;&quot;&gt;0р&lt;/font&gt;" style="text;html=1;align=left;verticalAlign=middle;whiteSpace=wrap;rounded=0;fontSize=10;" vertex="1" parent="1">
          <mxGeometry x="803" y="770.5" width="8" height="16" as="geometry" />
        </mxCell>
        <mxCell id="HcpTpRQro9Q7iZag2Mpt-85" value="&lt;font style=&quot;font-size: 10px;&quot;&gt;6&lt;/font&gt;" style="text;html=1;align=left;verticalAlign=middle;whiteSpace=wrap;rounded=0;fontSize=10;" vertex="1" parent="1">
          <mxGeometry x="944" y="770.5" width="8" height="16" as="geometry" />
        </mxCell>
        <mxCell id="HcpTpRQro9Q7iZag2Mpt-86" style="edgeStyle=orthogonalEdgeStyle;rounded=1;orthogonalLoop=1;jettySize=auto;html=1;exitX=1;exitY=0.5;exitDx=0;exitDy=0;entryX=0;entryY=0.5;entryDx=0;entryDy=0;curved=0;" edge="1" parent="1" target="HcpTpRQro9Q7iZag2Mpt-83">
          <mxGeometry relative="1" as="geometry">
            <mxPoint x="762" y="690.5" as="sourcePoint" />
            <mxPoint x="782" y="770.5" as="targetPoint" />
          </mxGeometry>
        </mxCell>
        <mxCell id="HcpTpRQro9Q7iZag2Mpt-90" value="" style="endArrow=classic;html=1;rounded=1;curved=0;" edge="1" parent="1">
          <mxGeometry width="50" height="50" relative="1" as="geometry">
            <mxPoint x="-90" y="720.5" as="sourcePoint" />
            <mxPoint x="295" y="606.5" as="targetPoint" />
            <Array as="points">
              <mxPoint x="295" y="720.5" />
            </Array>
          </mxGeometry>
        </mxCell>
        <mxCell id="HcpTpRQro9Q7iZag2Mpt-91" value="" style="endArrow=classic;html=1;rounded=1;curved=0;entryX=0.475;entryY=1.035;entryDx=0;entryDy=0;entryPerimeter=0;" edge="1" parent="1" target="HcpTpRQro9Q7iZag2Mpt-71">
          <mxGeometry width="50" height="50" relative="1" as="geometry">
            <mxPoint x="-86" y="780.5" as="sourcePoint" />
            <mxPoint x="318" y="632.5" as="targetPoint" />
            <Array as="points">
              <mxPoint x="683" y="780.5" />
            </Array>
          </mxGeometry>
        </mxCell>
        <mxCell id="HcpTpRQro9Q7iZag2Mpt-93" value="" style="endArrow=classic;html=1;rounded=0;" edge="1" parent="1">
          <mxGeometry width="50" height="50" relative="1" as="geometry">
            <mxPoint x="496" y="870.5" as="sourcePoint" />
            <mxPoint x="495.58000000000004" y="665.5" as="targetPoint" />
          </mxGeometry>
        </mxCell>
        <mxCell id="HcpTpRQro9Q7iZag2Mpt-94" value="" style="endArrow=classic;html=1;rounded=1;curved=0;" edge="1" parent="1">
          <mxGeometry width="50" height="50" relative="1" as="geometry">
            <mxPoint x="496" y="830.5" as="sourcePoint" />
            <mxPoint x="877.66" y="786.5" as="targetPoint" />
            <Array as="points">
              <mxPoint x="878" y="830.5" />
            </Array>
          </mxGeometry>
        </mxCell>
        <mxCell id="HcpTpRQro9Q7iZag2Mpt-96" value="Компания&amp;nbsp;&lt;div&gt;&quot;БукЧейн&quot;&lt;/div&gt;" style="text;html=1;align=left;verticalAlign=middle;whiteSpace=wrap;rounded=0;" vertex="1" parent="1">
          <mxGeometry x="500" y="833.5" width="71" height="30" as="geometry" />
        </mxCell>
        <mxCell id="HcpTpRQro9Q7iZag2Mpt-97" value="Заказ" style="text;html=1;align=left;verticalAlign=middle;whiteSpace=wrap;rounded=0;" vertex="1" parent="1">
          <mxGeometry x="387" y="550.5" width="51" height="20" as="geometry" />
        </mxCell>
        <mxCell id="HcpTpRQro9Q7iZag2Mpt-101" value="" style="endArrow=classic;html=1;rounded=0;entryX=0.5;entryY=0;entryDx=0;entryDy=0;" edge="1" parent="1" target="HcpTpRQro9Q7iZag2Mpt-50">
          <mxGeometry width="50" height="50" relative="1" as="geometry">
            <mxPoint x="304.74" y="390.5" as="sourcePoint" />
            <mxPoint x="304.5" y="470.5" as="targetPoint" />
          </mxGeometry>
        </mxCell>
        <mxCell id="HcpTpRQro9Q7iZag2Mpt-102" value="Сведения о службах доставки" style="text;html=1;align=left;verticalAlign=middle;whiteSpace=wrap;rounded=0;" vertex="1" parent="1">
          <mxGeometry x="309" y="400" width="70" height="30" as="geometry" />
        </mxCell>
        <mxCell id="HcpTpRQro9Q7iZag2Mpt-103" value="" style="endArrow=classic;html=1;rounded=1;curved=0;" edge="1" parent="1">
          <mxGeometry width="50" height="50" relative="1" as="geometry">
            <mxPoint x="305" y="493.5" as="sourcePoint" />
            <mxPoint x="879" y="716.5" as="targetPoint" />
            <Array as="points">
              <mxPoint x="879" y="493.5" />
            </Array>
          </mxGeometry>
        </mxCell>
        <mxCell id="HcpTpRQro9Q7iZag2Mpt-104" value="" style="endArrow=classic;html=1;rounded=0;entryX=0.5;entryY=0;entryDx=0;entryDy=0;" edge="1" parent="1">
          <mxGeometry width="50" height="50" relative="1" as="geometry">
            <mxPoint x="689" y="393.5" as="sourcePoint" />
            <mxPoint x="690" y="656.5" as="targetPoint" />
          </mxGeometry>
        </mxCell>
        <mxCell id="HcpTpRQro9Q7iZag2Mpt-105" value="Сведения о платёжных системах" style="text;html=1;align=left;verticalAlign=middle;whiteSpace=wrap;rounded=0;" vertex="1" parent="1">
          <mxGeometry x="691" y="403.5" width="70" height="23" as="geometry" />
        </mxCell>
        <mxCell id="HcpTpRQro9Q7iZag2Mpt-118" value="Вход в систему" style="rounded=0;whiteSpace=wrap;html=1;" vertex="1" parent="1">
          <mxGeometry x="-151" y="400.5" width="150" height="70" as="geometry" />
        </mxCell>
        <mxCell id="HcpTpRQro9Q7iZag2Mpt-119" style="edgeStyle=orthogonalEdgeStyle;rounded=1;orthogonalLoop=1;jettySize=auto;html=1;exitX=1;exitY=0.5;exitDx=0;exitDy=0;entryX=0;entryY=0.5;entryDx=0;entryDy=0;curved=0;" edge="1" parent="1" source="HcpTpRQro9Q7iZag2Mpt-118" target="HcpTpRQro9Q7iZag2Mpt-25">
          <mxGeometry relative="1" as="geometry">
            <mxPoint x="-11" y="439.31" as="sourcePoint" />
            <mxPoint x="30" y="500.31" as="targetPoint" />
          </mxGeometry>
        </mxCell>
        <mxCell id="HcpTpRQro9Q7iZag2Mpt-121" value="&lt;font style=&quot;font-size: 10px;&quot;&gt;0р&lt;/font&gt;" style="text;html=1;align=left;verticalAlign=middle;whiteSpace=wrap;rounded=0;" vertex="1" parent="1">
          <mxGeometry x="-151" y="454.5" width="8" height="16" as="geometry" />
        </mxCell>
        <mxCell id="HcpTpRQro9Q7iZag2Mpt-122" value="&lt;font style=&quot;font-size: 10px;&quot;&gt;1&lt;/font&gt;" style="text;html=1;align=left;verticalAlign=middle;whiteSpace=wrap;rounded=0;" vertex="1" parent="1">
          <mxGeometry x="-9" y="454.5" width="8" height="16" as="geometry" />
        </mxCell>
        <mxCell id="HcpTpRQro9Q7iZag2Mpt-123" value="" style="endArrow=classic;html=1;rounded=0;" edge="1" parent="1">
          <mxGeometry width="50" height="50" relative="1" as="geometry">
            <mxPoint x="-76.1" y="320" as="sourcePoint" />
            <mxPoint x="-76.34" y="400" as="targetPoint" />
          </mxGeometry>
        </mxCell>
        <mxCell id="HcpTpRQro9Q7iZag2Mpt-124" value="Данные&amp;nbsp;&lt;div&gt;валидации&lt;/div&gt;" style="text;html=1;align=left;verticalAlign=middle;whiteSpace=wrap;rounded=0;" vertex="1" parent="1">
          <mxGeometry x="-71" y="320" width="70" height="30" as="geometry" />
        </mxCell>
        <mxCell id="HcpTpRQro9Q7iZag2Mpt-125" value="" style="endArrow=classic;html=1;rounded=0;" edge="1" parent="1">
          <mxGeometry width="50" height="50" relative="1" as="geometry">
            <mxPoint x="470.24" as="sourcePoint" />
            <mxPoint x="470" y="80" as="targetPoint" />
          </mxGeometry>
        </mxCell>
        <mxCell id="HcpTpRQro9Q7iZag2Mpt-126" value="Данные&amp;nbsp;&lt;div&gt;валидации&lt;/div&gt;" style="text;html=1;align=left;verticalAlign=middle;whiteSpace=wrap;rounded=0;" vertex="1" parent="1">
          <mxGeometry x="438.99999999999994" y="-40" width="70" height="30" as="geometry" />
        </mxCell>
        <mxCell id="HcpTpRQro9Q7iZag2Mpt-128" value="Сведения&amp;nbsp; о пользователе" style="text;html=1;align=left;verticalAlign=middle;whiteSpace=wrap;rounded=0;" vertex="1" parent="1">
          <mxGeometry x="8" y="410.5" width="70" height="20" as="geometry" />
        </mxCell>
        <mxCell id="HcpTpRQro9Q7iZag2Mpt-129" value="" style="endArrow=classic;html=1;rounded=1;curved=0;" edge="1" parent="1">
          <mxGeometry width="50" height="50" relative="1" as="geometry">
            <mxPoint x="104" y="720.5" as="sourcePoint" />
            <mxPoint x="104" y="540.5" as="targetPoint" />
            <Array as="points">
              <mxPoint x="104" y="654.5" />
            </Array>
          </mxGeometry>
        </mxCell>
        <mxCell id="HcpTpRQro9Q7iZag2Mpt-130" value="" style="endArrow=classic;html=1;rounded=0;" edge="1" parent="1">
          <mxGeometry width="50" height="50" relative="1" as="geometry">
            <mxPoint x="-203" y="1205.5" as="sourcePoint" />
            <mxPoint x="-103" y="1205.5" as="targetPoint" />
          </mxGeometry>
        </mxCell>
        <mxCell id="HcpTpRQro9Q7iZag2Mpt-131" value="Данные пользователя" style="text;html=1;align=left;verticalAlign=middle;whiteSpace=wrap;rounded=0;" vertex="1" parent="1">
          <mxGeometry x="-203" y="1170.5" width="70" height="30" as="geometry" />
        </mxCell>
        <mxCell id="HcpTpRQro9Q7iZag2Mpt-132" value="Покупатель" style="text;html=1;align=left;verticalAlign=middle;whiteSpace=wrap;rounded=0;" vertex="1" parent="1">
          <mxGeometry x="-111.5" y="1270" width="71" height="30" as="geometry" />
        </mxCell>
        <mxCell id="HcpTpRQro9Q7iZag2Mpt-133" value="" style="endArrow=classic;html=1;rounded=0;" edge="1" parent="1">
          <mxGeometry width="50" height="50" relative="1" as="geometry">
            <mxPoint x="-38" y="1380" as="sourcePoint" />
            <mxPoint x="-38.34" y="1240.5" as="targetPoint" />
          </mxGeometry>
        </mxCell>
        <mxCell id="HcpTpRQro9Q7iZag2Mpt-134" value="Вход" style="rounded=0;whiteSpace=wrap;html=1;" vertex="1" parent="1">
          <mxGeometry x="-103" y="1170.5" width="150" height="70" as="geometry" />
        </mxCell>
        <mxCell id="HcpTpRQro9Q7iZag2Mpt-136" value="&lt;font style=&quot;font-size: 10px;&quot;&gt;11&lt;/font&gt;" style="text;html=1;align=left;verticalAlign=middle;whiteSpace=wrap;rounded=0;" vertex="1" parent="1">
          <mxGeometry x="31" y="1224.5" width="8" height="16" as="geometry" />
        </mxCell>
        <mxCell id="HcpTpRQro9Q7iZag2Mpt-137" value="" style="endArrow=classic;html=1;rounded=0;" edge="1" parent="1">
          <mxGeometry width="50" height="50" relative="1" as="geometry">
            <mxPoint x="-28.099999999999994" y="1090" as="sourcePoint" />
            <mxPoint x="-28.340000000000003" y="1170" as="targetPoint" />
          </mxGeometry>
        </mxCell>
        <mxCell id="HcpTpRQro9Q7iZag2Mpt-138" value="Данные&amp;nbsp;&lt;div&gt;валидации&lt;/div&gt;" style="text;html=1;align=left;verticalAlign=middle;whiteSpace=wrap;rounded=0;" vertex="1" parent="1">
          <mxGeometry x="-23" y="1090" width="70" height="30" as="geometry" />
        </mxCell>
        <mxCell id="HcpTpRQro9Q7iZag2Mpt-139" value="Рис.3. Ветка 1" style="text;whiteSpace=wrap;" vertex="1" parent="1">
          <mxGeometry x="25" y="1430" width="105" height="40" as="geometry" />
        </mxCell>
        <mxCell id="HcpTpRQro9Q7iZag2Mpt-141" value="Авторизация" style="rounded=0;whiteSpace=wrap;html=1;" vertex="1" parent="1">
          <mxGeometry x="130" y="1230" width="150" height="70" as="geometry" />
        </mxCell>
        <mxCell id="HcpTpRQro9Q7iZag2Mpt-142" style="edgeStyle=orthogonalEdgeStyle;rounded=1;orthogonalLoop=1;jettySize=auto;html=1;exitX=1;exitY=0.5;exitDx=0;exitDy=0;entryX=0;entryY=0.5;entryDx=0;entryDy=0;curved=0;" edge="1" parent="1" target="HcpTpRQro9Q7iZag2Mpt-141">
          <mxGeometry relative="1" as="geometry">
            <mxPoint x="47" y="1204" as="sourcePoint" />
            <mxPoint x="67" y="1284" as="targetPoint" />
            <Array as="points">
              <mxPoint x="80" y="1205" />
              <mxPoint x="80" y="1265" />
            </Array>
          </mxGeometry>
        </mxCell>
        <mxCell id="HcpTpRQro9Q7iZag2Mpt-144" value="&lt;font style=&quot;font-size: 10px;&quot;&gt;12&lt;/font&gt;" style="text;html=1;align=left;verticalAlign=middle;whiteSpace=wrap;rounded=0;" vertex="1" parent="1">
          <mxGeometry x="264" y="1284" width="8" height="16" as="geometry" />
        </mxCell>
        <mxCell id="HcpTpRQro9Q7iZag2Mpt-145" value="Логин/&lt;div&gt;пароль&lt;/div&gt;" style="text;html=1;align=left;verticalAlign=middle;whiteSpace=wrap;rounded=0;" vertex="1" parent="1">
          <mxGeometry x="80" y="1180" width="70" height="30" as="geometry" />
        </mxCell>
        <mxCell id="HcpTpRQro9Q7iZag2Mpt-146" value="" style="endArrow=classic;html=1;rounded=1;curved=0;entryX=0.294;entryY=1.021;entryDx=0;entryDy=0;entryPerimeter=0;" edge="1" parent="1" target="HcpTpRQro9Q7iZag2Mpt-141">
          <mxGeometry width="50" height="50" relative="1" as="geometry">
            <mxPoint x="-38" y="1350" as="sourcePoint" />
            <mxPoint x="210" y="1300" as="targetPoint" />
            <Array as="points">
              <mxPoint x="174" y="1349" />
            </Array>
          </mxGeometry>
        </mxCell>
        <mxCell id="HcpTpRQro9Q7iZag2Mpt-147" value="" style="endArrow=classic;html=1;rounded=0;" edge="1" parent="1">
          <mxGeometry width="50" height="50" relative="1" as="geometry">
            <mxPoint x="230" y="1380" as="sourcePoint" />
            <mxPoint x="229.99999999999997" y="1300" as="targetPoint" />
          </mxGeometry>
        </mxCell>
        <mxCell id="HcpTpRQro9Q7iZag2Mpt-148" value="Компания&amp;nbsp;&lt;div&gt;&quot;БукЧейн&quot;&lt;/div&gt;" style="text;html=1;align=left;verticalAlign=middle;whiteSpace=wrap;rounded=0;" vertex="1" parent="1">
          <mxGeometry x="238" y="1330" width="71" height="30" as="geometry" />
        </mxCell>
        <mxCell id="HcpTpRQro9Q7iZag2Mpt-151" value="" style="edgeStyle=orthogonalEdgeStyle;rounded=0;orthogonalLoop=1;jettySize=auto;html=1;" edge="1" parent="1">
          <mxGeometry relative="1" as="geometry">
            <mxPoint x="279" y="1265.21" as="sourcePoint" />
            <mxPoint x="359" y="1264.71" as="targetPoint" />
            <Array as="points">
              <mxPoint x="319" y="1265.71" />
            </Array>
          </mxGeometry>
        </mxCell>
        <mxCell id="HcpTpRQro9Q7iZag2Mpt-152" value="Сведения о пользователе" style="text;html=1;align=left;verticalAlign=middle;whiteSpace=wrap;rounded=0;" vertex="1" parent="1">
          <mxGeometry x="289" y="1224.5" width="70" height="30" as="geometry" />
        </mxCell>
        <mxCell id="HcpTpRQro9Q7iZag2Mpt-155" value="" style="endArrow=classic;html=1;rounded=0;" edge="1" parent="1">
          <mxGeometry width="50" height="50" relative="1" as="geometry">
            <mxPoint x="576" y="1205.5" as="sourcePoint" />
            <mxPoint x="676" y="1205.5" as="targetPoint" />
          </mxGeometry>
        </mxCell>
        <mxCell id="HcpTpRQro9Q7iZag2Mpt-156" value="Заказ" style="text;html=1;align=left;verticalAlign=middle;whiteSpace=wrap;rounded=0;" vertex="1" parent="1">
          <mxGeometry x="576" y="1170.5" width="70" height="30" as="geometry" />
        </mxCell>
        <mxCell id="HcpTpRQro9Q7iZag2Mpt-157" value="Покупатель" style="text;html=1;align=left;verticalAlign=middle;whiteSpace=wrap;rounded=0;" vertex="1" parent="1">
          <mxGeometry x="667.5" y="1270" width="71" height="30" as="geometry" />
        </mxCell>
        <mxCell id="HcpTpRQro9Q7iZag2Mpt-158" value="" style="endArrow=classic;html=1;rounded=0;" edge="1" parent="1">
          <mxGeometry width="50" height="50" relative="1" as="geometry">
            <mxPoint x="741" y="1380" as="sourcePoint" />
            <mxPoint x="740.66" y="1240.5" as="targetPoint" />
          </mxGeometry>
        </mxCell>
        <mxCell id="HcpTpRQro9Q7iZag2Mpt-159" value="Отправка данных&amp;nbsp;&lt;div&gt;заказа в магазин&lt;/div&gt;" style="rounded=0;whiteSpace=wrap;html=1;" vertex="1" parent="1">
          <mxGeometry x="676" y="1170.5" width="150" height="70" as="geometry" />
        </mxCell>
        <mxCell id="HcpTpRQro9Q7iZag2Mpt-160" value="&lt;font style=&quot;font-size: 10px;&quot;&gt;41&lt;/font&gt;" style="text;html=1;align=left;verticalAlign=middle;whiteSpace=wrap;rounded=0;" vertex="1" parent="1">
          <mxGeometry x="810" y="1224.5" width="8" height="16" as="geometry" />
        </mxCell>
        <mxCell id="HcpTpRQro9Q7iZag2Mpt-163" value="Проверка товаров на наличие / бронирование" style="rounded=0;whiteSpace=wrap;html=1;" vertex="1" parent="1">
          <mxGeometry x="909" y="1230" width="150" height="70" as="geometry" />
        </mxCell>
        <mxCell id="HcpTpRQro9Q7iZag2Mpt-164" style="edgeStyle=orthogonalEdgeStyle;rounded=1;orthogonalLoop=1;jettySize=auto;html=1;exitX=1;exitY=0.5;exitDx=0;exitDy=0;entryX=0;entryY=0.5;entryDx=0;entryDy=0;curved=0;" edge="1" parent="1" target="HcpTpRQro9Q7iZag2Mpt-163">
          <mxGeometry relative="1" as="geometry">
            <mxPoint x="826" y="1204" as="sourcePoint" />
            <mxPoint x="846" y="1284" as="targetPoint" />
            <Array as="points">
              <mxPoint x="859" y="1205" />
              <mxPoint x="859" y="1265" />
            </Array>
          </mxGeometry>
        </mxCell>
        <mxCell id="HcpTpRQro9Q7iZag2Mpt-165" value="&lt;font style=&quot;font-size: 10px;&quot;&gt;42&lt;/font&gt;" style="text;html=1;align=left;verticalAlign=middle;whiteSpace=wrap;rounded=0;" vertex="1" parent="1">
          <mxGeometry x="1043" y="1284" width="8" height="16" as="geometry" />
        </mxCell>
        <mxCell id="HcpTpRQro9Q7iZag2Mpt-166" value="Логин/&lt;div&gt;пароль&lt;/div&gt;" style="text;html=1;align=left;verticalAlign=middle;whiteSpace=wrap;rounded=0;" vertex="1" parent="1">
          <mxGeometry x="859" y="1180" width="70" height="30" as="geometry" />
        </mxCell>
        <mxCell id="HcpTpRQro9Q7iZag2Mpt-168" value="" style="endArrow=classic;html=1;rounded=0;" edge="1" parent="1">
          <mxGeometry width="50" height="50" relative="1" as="geometry">
            <mxPoint x="989" y="1380" as="sourcePoint" />
            <mxPoint x="989" y="1300" as="targetPoint" />
          </mxGeometry>
        </mxCell>
        <mxCell id="HcpTpRQro9Q7iZag2Mpt-169" value="Компания&amp;nbsp;&lt;div&gt;&quot;БукЧейн&quot;&lt;/div&gt;" style="text;html=1;align=left;verticalAlign=middle;whiteSpace=wrap;rounded=0;" vertex="1" parent="1">
          <mxGeometry x="997" y="1330" width="71" height="30" as="geometry" />
        </mxCell>
        <mxCell id="HcpTpRQro9Q7iZag2Mpt-170" value="" style="edgeStyle=orthogonalEdgeStyle;rounded=0;orthogonalLoop=1;jettySize=auto;html=1;" edge="1" parent="1">
          <mxGeometry relative="1" as="geometry">
            <mxPoint x="1058" y="1265.21" as="sourcePoint" />
            <mxPoint x="1138" y="1264.71" as="targetPoint" />
            <Array as="points">
              <mxPoint x="1098" y="1265.71" />
            </Array>
          </mxGeometry>
        </mxCell>
        <mxCell id="HcpTpRQro9Q7iZag2Mpt-171" value="Одобренный заказ" style="text;html=1;align=left;verticalAlign=middle;whiteSpace=wrap;rounded=0;" vertex="1" parent="1">
          <mxGeometry x="1068" y="1224.5" width="70" height="30" as="geometry" />
        </mxCell>
        <mxCell id="HcpTpRQro9Q7iZag2Mpt-172" value="" style="endArrow=classic;html=1;rounded=1;curved=0;" edge="1" parent="1">
          <mxGeometry width="50" height="50" relative="1" as="geometry">
            <mxPoint x="290" y="720" as="sourcePoint" />
            <mxPoint x="460" y="665.5" as="targetPoint" />
            <Array as="points">
              <mxPoint x="460" y="720" />
            </Array>
          </mxGeometry>
        </mxCell>
        <mxCell id="HcpTpRQro9Q7iZag2Mpt-173" value="Одобренный заказ" style="text;html=1;align=left;verticalAlign=middle;whiteSpace=wrap;rounded=0;" vertex="1" parent="1">
          <mxGeometry x="576" y="595.5" width="70" height="30" as="geometry" />
        </mxCell>
        <mxCell id="HcpTpRQro9Q7iZag2Mpt-174" value="Оплаченный&amp;nbsp;&lt;div&gt;заказ&lt;/div&gt;" style="text;html=1;align=left;verticalAlign=middle;whiteSpace=wrap;rounded=0;" vertex="1" parent="1">
          <mxGeometry x="772" y="656.5" width="70" height="30" as="geometry" />
        </mxCell>
        <mxCell id="HcpTpRQro9Q7iZag2Mpt-175" value="Рис.3. Ветка 4" style="text;whiteSpace=wrap;" vertex="1" parent="1">
          <mxGeometry x="864" y="1440" width="105" height="40" as="geometry" />
        </mxCell>
      </root>
    </mxGraphModel>
  </diagram>
</mxfile>
